<?xml version="1.0" standalone="no"?>
<!DOCTYPE svg PUBLIC "-//W3C//DTD SVG 20010904//EN"
 "http://www.w3.org/TR/2001/REC-SVG-20010904/DTD/svg10.dtd">
<svg version="1.0" xmlns="http://www.w3.org/2000/svg"
 width="400.000000pt" height="400.000000pt" viewBox="0 0 400.000000 400.000000"
 preserveAspectRatio="xMidYMid meet">

<g transform="translate(0.000000,400.000000) scale(0.100000,-0.100000)"
fill="#000000" stroke="none">
<path d="M0 2000 l0 -2000 2000 0 2000 0 0 2000 0 2000 -2000 0 -2000 0 0
-2000z m1640 170 c0 -91 -3 -110 -15 -110 -11 0 -15 11 -15 39 0 111 -159 175
-272 109 -147 -87 -124 -372 39 -468 87 -51 214 -29 221 38 5 48 -13 72 -53
72 -24 0 -35 5 -35 15 0 12 19 15 110 15 91 0 110 -3 110 -15 0 -9 -9 -15 -25
-15 -23 0 -25 -3 -25 -49 0 -47 -2 -50 -43 -74 -67 -39 -152 -60 -214 -53
-229 27 -336 284 -200 481 76 112 230 144 380 80 14 -6 17 -2 17 19 0 14 5 26
10 26 6 0 10 -43 10 -110z m982 96 c29 -8 65 -19 81 -25 25 -10 27 -9 27 14 0
16 6 25 15 25 12 0 15 -19 15 -110 0 -91 -3 -110 -15 -110 -10 0 -15 10 -15
33 0 59 -49 117 -112 132 l-28 7 0 -86 c0 -66 -3 -86 -14 -86 -8 0 -15 15 -19
40 -11 85 -76 133 -122 90 -72 -68 -89 -215 -37 -325 35 -73 106 -142 128
-124 8 7 14 29 14 55 0 46 -1 46 -63 56 -10 2 -18 8 -18 13 1 6 73 11 191 13
165 2 190 0 190 -13 0 -9 -9 -15 -26 -15 -24 0 -25 -2 -23 -46 4 -53 -4 -61
-91 -102 -50 -24 -68 -26 -195 -28 -167 -3 -221 9 -293 65 -82 65 -125 185
-102 284 41 171 155 258 319 244 52 -5 116 1 138 12 1 1 26 -5 55 -13z m-1559
-237 c78 -267 93 -306 118 -314 11 -4 19 -13 19 -21 0 -11 -19 -14 -90 -14
-74 0 -90 3 -90 15 0 9 12 18 28 21 l29 6 -42 151 -41 152 -36 3 c-28 2 -38
-1 -42 -15 -3 -10 -21 -73 -41 -141 -21 -67 -35 -128 -32 -136 3 -8 19 -17 36
-21 17 -4 31 -13 31 -21 0 -11 -18 -14 -80 -14 -63 0 -80 3 -80 14 0 8 10 16
22 18 20 3 31 32 104 269 44 146 84 271 88 278 4 7 13 10 19 8 7 -2 43 -109
80 -238z m882 230 c4 -5 40 -123 80 -262 68 -231 76 -254 106 -279 41 -35 29
-40 -77 -36 -62 2 -79 6 -79 18 0 8 12 17 26 20 l25 5 -40 153 -41 152 -36 0
-36 0 -37 -127 c-21 -71 -39 -135 -42 -144 -6 -21 21 -49 47 -49 10 0 19 -7
19 -15 0 -12 -16 -15 -80 -15 -63 0 -80 3 -80 14 0 8 10 16 22 18 20 3 31 30
103 263 45 143 84 268 88 278 7 19 22 22 32 6z m1581 -17 c168 -87 210 -335
81 -470 -78 -82 -224 -115 -338 -77 -160 54 -238 268 -154 424 32 57 79 100
146 131 60 28 204 24 265 -8z m-2894 -19 c15 -15 30 -42 34 -60 5 -27 1 -37
-24 -63 l-30 -30 42 -19 c100 -44 134 -156 79 -261 -23 -44 -39 -59 -82 -82
-51 -27 -60 -28 -192 -28 -117 0 -139 2 -139 15 0 10 10 15 30 15 l30 0 -2
253 -3 252 -27 3 c-16 2 -28 9 -28 17 0 11 24 15 108 18 151 5 172 2 204 -30z
m2408 12 c0 -10 -10 -15 -30 -15 l-30 0 0 -250 0 -250 30 -6 c17 -4 30 -13 30
-20 0 -11 -22 -14 -100 -14 -82 0 -100 3 -100 15 0 10 10 15 30 15 l30 0 -2
252 -3 252 -24 6 c-14 3 -26 11 -29 18 -3 9 22 12 97 12 83 0 101 -3 101 -15z
m-2018 -747 c3 -59 5 -63 27 -63 13 0 26 -6 28 -12 3 -9 -8 -13 -36 -13 l-41
0 0 75 c0 90 18 101 22 13z m1906 50 c19 -19 14 -25 -17 -25 -26 0 -29 3 -20
19 11 21 20 23 37 6z m-1770 -50 c13 -13 17 -49 5 -47 -29 5 -63 -3 -57 -12 3
-6 19 -9 35 -5 16 3 29 1 29 -4 0 -15 -51 -24 -69 -13 -20 13 -26 60 -10 79
14 17 51 18 67 2z m51 -15 l13 -28 14 28 c8 15 19 27 24 27 14 0 12 -10 -14
-60 l-23 -44 -22 42 c-11 22 -21 46 -21 52 0 20 17 10 29 -17z m138 19 c6 -4
13 -16 15 -27 2 -16 -3 -21 -29 -23 -18 -2 -33 -8 -33 -14 0 -6 12 -8 30 -4
31 6 43 -10 15 -20 -27 -11 -64 5 -71 30 -12 48 33 84 73 58z m150 -9 c3 -7
-4 -10 -19 -6 -21 5 -20 3 7 -20 26 -22 28 -27 16 -41 -16 -19 -52 -18 -59 3
-3 9 2 11 17 6 12 -3 21 -2 21 4 0 5 -9 13 -20 16 -20 6 -27 35 -13 49 11 10
46 3 50 -11z m107 -6 c13 -21 -5 -37 -42 -37 -14 0 -21 -4 -17 -11 4 -6 20 -7
38 -3 28 6 30 5 18 -10 -16 -19 -52 -21 -69 -4 -16 16 -15 61 0 76 17 17 59
11 72 -11z m164 -30 c2 -33 0 -47 -7 -42 -6 3 -11 22 -11 41 0 28 -4 35 -17
32 -13 -2 -19 -14 -21 -41 -4 -50 -22 -48 -22 3 0 33 -3 40 -20 40 -16 0 -20
-7 -20 -34 0 -19 -4 -38 -10 -41 -6 -4 -10 13 -10 44 l0 51 68 -3 67 -2 3 -48z
m109 41 c18 -14 16 -63 -2 -78 -8 -7 -24 -10 -35 -7 -16 4 -20 0 -20 -19 0
-13 -4 -24 -10 -24 -6 0 -10 29 -10 68 l0 69 32 1 c18 0 38 -4 45 -10z m93 1
c0 -5 -6 -9 -14 -9 -16 0 -26 -21 -26 -56 0 -13 -4 -24 -10 -24 -5 0 -10 22
-10 48 0 47 1 49 30 50 17 0 30 -4 30 -9z m90 -9 c15 -27 5 -40 -31 -40 -19 0
-28 -4 -24 -11 4 -6 20 -7 38 -3 28 6 30 5 18 -10 -24 -29 -71 -19 -84 18 -18
48 59 91 83 46z m160 11 c0 -5 -12 -11 -27 -13 -22 -2 -28 -8 -28 -28 0 -21 5
-25 28 -25 15 1 27 -5 27 -12 0 -16 -52 -17 -68 -1 -7 7 -12 24 -12 38 0 14 5
31 12 38 14 14 68 16 68 3z m91 -1 c39 -22 13 -90 -35 -90 -30 0 -46 18 -46
52 0 40 40 59 81 38z m180 -38 c3 -23 3 -44 1 -47 -11 -11 -22 9 -22 41 0 28
-4 35 -17 32 -13 -2 -19 -14 -21 -41 -4 -50 -22 -47 -22 4 0 33 -3 40 -17 37
-13 -2 -19 -14 -21 -41 -5 -55 -22 -45 -22 13 l0 50 68 -3 67 -2 6 -43z m105
23 c3 -14 9 -25 13 -25 4 0 13 11 19 25 19 41 34 29 16 -12 -9 -21 -18 -44
-21 -50 -9 -22 -17 -15 -35 30 -21 49 -22 57 -8 57 5 0 12 -11 16 -25z m152
13 c7 -7 12 -24 12 -38 0 -48 -45 -67 -82 -33 -22 20 -23 41 -1 65 18 21 53
24 71 6z m102 -3 c0 -5 -10 -10 -23 -10 -17 0 -22 -6 -22 -25 0 -21 4 -25 28
-23 18 1 27 -2 24 -10 -5 -17 -45 -21 -63 -7 -17 15 -18 62 -2 78 15 15 59 12
58 -3z m98 -2 c20 -39 3 -83 -32 -83 -40 0 -63 46 -40 79 18 25 60 28 72 4z
m54 -68 c0 -5 -5 -11 -11 -13 -6 -2 -11 4 -11 13 0 9 5 15 11 13 6 -2 11 -8
11 -13z"/>
<path d="M2317 2225 c-48 -17 -83 -48 -110 -100 -31 -57 -30 -180 2 -252 38
-86 136 -163 209 -163 6 0 -6 17 -29 37 -66 59 -93 123 -93 218 -1 71 3 88 32
148 19 37 46 77 62 89 16 12 27 25 24 30 -8 12 -54 9 -97 -7z"/>
<path d="M2621 1805 c3 -40 -1 -49 -26 -70 l-30 -24 37 -1 c58 0 105 27 111
64 8 55 -7 76 -54 76 l-41 0 3 -45z"/>
<path d="M946 2109 c-9 -46 -8 -49 15 -49 18 0 20 4 14 33 -10 46 -21 53 -29
16z"/>
<path d="M1896 2109 c-9 -46 -8 -49 15 -49 19 0 21 4 15 32 -9 47 -22 54 -30
17z"/>
<path d="M3304 2230 c-146 -32 -190 -246 -85 -412 64 -100 194 -134 294 -75
123 73 130 275 13 414 -47 56 -148 89 -222 73z"/>
<path d="M460 2155 l0 -65 49 0 c42 0 53 4 70 26 44 56 12 104 -69 104 l-50 0
0 -65z"/>
<path d="M460 1885 l0 -178 63 7 c71 8 103 27 134 82 30 52 30 118 0 175 -29
54 -69 79 -142 86 l-55 6 0 -178z"/>
<path d="M1110 1470 c0 -5 9 -10 21 -10 11 0 17 5 14 10 -3 6 -13 10 -21 10
-8 0 -14 -4 -14 -10z"/>
<path d="M1300 1470 c0 -5 9 -10 20 -10 11 0 20 5 20 10 0 6 -9 10 -20 10 -11
0 -20 -4 -20 -10z"/>
<path d="M1545 1470 c-4 -6 5 -10 20 -10 15 0 24 4 20 10 -3 6 -12 10 -20 10
-8 0 -17 -4 -20 -10z"/>
<path d="M1824 1466 c-9 -24 4 -48 23 -44 24 4 24 52 0 56 -9 2 -20 -4 -23
-12z"/>
<path d="M2005 1470 c-3 -5 3 -10 14 -10 12 0 21 5 21 10 0 6 -6 10 -14 10 -8
0 -18 -4 -21 -10z"/>
<path d="M2254 1466 c-10 -26 4 -48 28 -44 17 2 23 10 23 28 0 18 -6 26 -23
28 -13 2 -25 -3 -28 -12z"/>
<path d="M2692 1467 c-9 -10 -8 -18 2 -32 18 -25 48 -13 44 17 -4 27 -30 35
-46 15z"/>
<path d="M2895 1470 c-3 -5 3 -10 14 -10 12 0 21 5 21 10 0 6 -6 10 -14 10 -8
0 -18 -4 -21 -10z"/>
<path d="M2895 1430 c3 -5 12 -10 20 -10 8 0 17 5 20 10 4 6 -5 10 -20 10 -15
0 -24 -4 -20 -10z"/>
</g>
</svg>
